<mxfile host="app.diagrams.net" modified="2023-05-09T10:38:21.243Z" agent="Mozilla/5.0 (Windows NT 10.0; Win64; x64) AppleWebKit/537.36 (KHTML, like Gecko) Chrome/111.0.0.0 Safari/537.36 OPR/97.0.0.0 (Edition std-1)" etag="-WT5q1BpTUpR7bdvS33G" version="21.2.9" type="device">
  <diagram name="Page-1" id="UmS6rFTY6wsE3aGpJzvI">
    <mxGraphModel dx="1808" dy="957" grid="1" gridSize="10" guides="1" tooltips="1" connect="1" arrows="1" fold="1" page="1" pageScale="1" pageWidth="4681" pageHeight="3300" math="0" shadow="0">
      <root>
        <mxCell id="0" />
        <mxCell id="1" parent="0" />
        <mxCell id="EDwrjuHku3MKhbdXHICR-25" style="edgeStyle=orthogonalEdgeStyle;rounded=0;orthogonalLoop=1;jettySize=auto;html=1;exitX=0;exitY=0.5;exitDx=0;exitDy=0;endArrow=none;endFill=0;" edge="1" parent="1" source="S80QuY6IthFkzWMJONJ6-1" target="S80QuY6IthFkzWMJONJ6-13">
          <mxGeometry relative="1" as="geometry" />
        </mxCell>
        <mxCell id="S80QuY6IthFkzWMJONJ6-1" value="MenuItem" style="html=1;overflow=block;blockSpacing=1;whiteSpace=wrap;rounded=1;arcSize=50;fontSize=16.7;fontColor=#3a414a;spacing=3.8;strokeColor=#3a414a;strokeOpacity=100;strokeWidth=0.8;lucidId=2_DQPhxuo9Rk;" parent="1" vertex="1">
          <mxGeometry x="1130" y="658" width="120" height="60" as="geometry" />
        </mxCell>
        <mxCell id="S80QuY6IthFkzWMJONJ6-2" value="Order" style="html=1;overflow=block;blockSpacing=1;whiteSpace=wrap;rounded=1;arcSize=50;fontSize=16.7;fontColor=#3a414a;spacing=3.8;strokeColor=#3a414a;strokeOpacity=100;strokeWidth=0.8;lucidId=._DQTchEHY8T;" parent="1" vertex="1">
          <mxGeometry x="855" y="440" width="120" height="60" as="geometry" />
        </mxCell>
        <mxCell id="S80QuY6IthFkzWMJONJ6-6" value="Employee" style="html=1;overflow=block;blockSpacing=1;whiteSpace=wrap;rounded=1;arcSize=50;fontSize=16.7;fontColor=#3a414a;spacing=3.8;strokeColor=#3a414a;strokeOpacity=100;strokeWidth=0.8;lucidId=v~DQZz5hIpRH;" parent="1" vertex="1">
          <mxGeometry x="10" y="688" width="120" height="60" as="geometry" />
        </mxCell>
        <mxCell id="S80QuY6IthFkzWMJONJ6-7" value="Table" style="html=1;overflow=block;blockSpacing=1;whiteSpace=wrap;rounded=1;arcSize=50;fontSize=16.7;fontColor=#3a414a;spacing=3.8;strokeColor=#3a414a;strokeOpacity=100;strokeWidth=0.8;lucidId=0bEQs~nstInd;" parent="1" vertex="1">
          <mxGeometry x="1030" y="245" width="120" height="60" as="geometry" />
        </mxCell>
        <mxCell id="EDwrjuHku3MKhbdXHICR-15" style="edgeStyle=orthogonalEdgeStyle;rounded=0;orthogonalLoop=1;jettySize=auto;html=1;exitX=0.5;exitY=0;exitDx=0;exitDy=0;entryX=0.5;entryY=1;entryDx=0;entryDy=0;endArrow=none;endFill=0;" edge="1" parent="1" source="EDwrjuHku3MKhbdXHICR-75" target="S80QuY6IthFkzWMJONJ6-7">
          <mxGeometry relative="1" as="geometry" />
        </mxCell>
        <mxCell id="S80QuY6IthFkzWMJONJ6-11" value="Belongs" style="html=1;overflow=block;blockSpacing=1;whiteSpace=wrap;rhombus;fontSize=16.7;fontColor=#3a414a;spacing=3.8;strokeColor=#3a414a;strokeOpacity=100;rounded=1;absoluteArcSize=1;arcSize=9;strokeWidth=0.8;lucidId=7dEQ_uxUIDBg;" parent="1" vertex="1">
          <mxGeometry x="1030" y="335" width="120" height="90" as="geometry" />
        </mxCell>
        <mxCell id="EDwrjuHku3MKhbdXHICR-23" style="edgeStyle=orthogonalEdgeStyle;rounded=0;orthogonalLoop=1;jettySize=auto;html=1;exitX=0;exitY=0.5;exitDx=0;exitDy=0;entryX=0.75;entryY=1;entryDx=0;entryDy=0;endArrow=none;endFill=0;" edge="1" parent="1" source="S80QuY6IthFkzWMJONJ6-13" target="S80QuY6IthFkzWMJONJ6-2">
          <mxGeometry relative="1" as="geometry" />
        </mxCell>
        <mxCell id="S80QuY6IthFkzWMJONJ6-13" value="Contains" style="html=1;overflow=block;blockSpacing=1;whiteSpace=wrap;rhombus;fontSize=16.7;fontColor=#3a414a;spacing=3.8;strokeColor=#3a414a;strokeOpacity=100;rounded=1;absoluteArcSize=1;arcSize=9;strokeWidth=0.8;lucidId=EfEQcmKpIMPb;" parent="1" vertex="1">
          <mxGeometry x="970" y="643" width="120" height="90" as="geometry" />
        </mxCell>
        <mxCell id="S80QuY6IthFkzWMJONJ6-16" value="IS_A" style="html=1;overflow=block;blockSpacing=1;whiteSpace=wrap;triangle;direction=south;anchorPointDirection=0;fontSize=16.7;fontColor=#3a414a;spacing=3.8;strokeColor=#3a414a;strokeOpacity=100;rounded=1;absoluteArcSize=1;arcSize=9;rotation=90;strokeWidth=0.8;lucidId=~hEQePkiE7fA;" parent="1" vertex="1">
          <mxGeometry x="135" y="695" width="75" height="45" as="geometry" />
        </mxCell>
        <mxCell id="S80QuY6IthFkzWMJONJ6-17" value="Waiter" style="html=1;overflow=block;blockSpacing=1;whiteSpace=wrap;rounded=1;arcSize=50;fontSize=16.7;fontColor=#3a414a;spacing=3.8;strokeColor=#3a414a;strokeOpacity=100;strokeWidth=0.8;lucidId=BiEQbchatAL5;" parent="1" vertex="1">
          <mxGeometry x="225" y="620" width="120" height="60" as="geometry" />
        </mxCell>
        <mxCell id="S80QuY6IthFkzWMJONJ6-18" value="Chef" style="html=1;overflow=block;blockSpacing=1;whiteSpace=wrap;rounded=1;arcSize=50;fontSize=16.7;fontColor=#3a414a;spacing=3.8;strokeColor=#3a414a;strokeOpacity=100;strokeWidth=0.8;lucidId=UiEQfYF8tl4D;" parent="1" vertex="1">
          <mxGeometry x="225" y="718" width="120" height="60" as="geometry" />
        </mxCell>
        <mxCell id="S80QuY6IthFkzWMJONJ6-19" value="" style="html=1;jettySize=18;whiteSpace=wrap;fontSize=13;strokeColor=#3a414a;strokeOpacity=100;strokeWidth=0.8;rounded=1;arcSize=12;edgeStyle=orthogonalEdgeStyle;startArrow=none;endArrow=none;exitX=0.5;exitY=-0.008;exitPerimeter=0;entryX=-0.003;entryY=0.5;entryPerimeter=0;lucidId=0iEQiev8DkRv;" parent="1" source="S80QuY6IthFkzWMJONJ6-16" target="S80QuY6IthFkzWMJONJ6-17" edge="1">
          <mxGeometry width="100" height="100" relative="1" as="geometry">
            <Array as="points">
              <mxPoint x="213" y="718" />
              <mxPoint x="213" y="650" />
            </Array>
          </mxGeometry>
        </mxCell>
        <mxCell id="S80QuY6IthFkzWMJONJ6-20" value="" style="html=1;jettySize=18;whiteSpace=wrap;fontSize=13;strokeColor=#3a414a;strokeOpacity=100;strokeWidth=0.8;rounded=1;arcSize=12;edgeStyle=orthogonalEdgeStyle;startArrow=none;endArrow=none;exitX=0.5;exitY=-0.008;exitPerimeter=0;entryX=-0.003;entryY=0.488;entryPerimeter=0;lucidId=4iEQh3PGphHI;" parent="1" source="S80QuY6IthFkzWMJONJ6-16" target="S80QuY6IthFkzWMJONJ6-18" edge="1">
          <mxGeometry width="100" height="100" relative="1" as="geometry">
            <Array as="points" />
          </mxGeometry>
        </mxCell>
        <mxCell id="S80QuY6IthFkzWMJONJ6-21" value="Takes" style="html=1;overflow=block;blockSpacing=1;whiteSpace=wrap;rhombus;fontSize=16.7;fontColor=#3a414a;spacing=3.8;strokeColor=#3a414a;strokeOpacity=100;rounded=1;absoluteArcSize=1;arcSize=9;strokeWidth=0.8;lucidId=djEQe-ayFI_I;" parent="1" vertex="1">
          <mxGeometry x="645" y="545" width="120" height="90" as="geometry" />
        </mxCell>
        <mxCell id="S80QuY6IthFkzWMJONJ6-22" value="" style="html=1;jettySize=18;whiteSpace=wrap;fontSize=13;strokeColor=#3a414a;strokeOpacity=100;strokeWidth=0.8;rounded=1;arcSize=12;edgeStyle=orthogonalEdgeStyle;startArrow=none;endArrow=none;exitX=0.984;exitY=0.5;exitPerimeter=0;entryX=0.5;entryY=1.006;entryPerimeter=0;lucidId=mjEQLjNJ.m2A;" parent="1" source="S80QuY6IthFkzWMJONJ6-21" target="S80QuY6IthFkzWMJONJ6-2" edge="1">
          <mxGeometry width="100" height="100" relative="1" as="geometry">
            <Array as="points" />
          </mxGeometry>
        </mxCell>
        <mxCell id="S80QuY6IthFkzWMJONJ6-23" value="" style="html=1;jettySize=18;whiteSpace=wrap;fontSize=13;strokeColor=#3a414a;strokeOpacity=100;strokeWidth=0.8;rounded=1;arcSize=12;edgeStyle=orthogonalEdgeStyle;startArrow=none;endArrow=none;exitX=1.003;exitY=0.5;exitPerimeter=0;entryX=0.016;entryY=0.5;entryPerimeter=0;lucidId=qjEQ~NXmA59S;" parent="1" source="S80QuY6IthFkzWMJONJ6-17" target="S80QuY6IthFkzWMJONJ6-21" edge="1">
          <mxGeometry width="100" height="100" relative="1" as="geometry">
            <Array as="points" />
          </mxGeometry>
        </mxCell>
        <mxCell id="S80QuY6IthFkzWMJONJ6-24" value="Prepares" style="html=1;overflow=block;blockSpacing=1;whiteSpace=wrap;rhombus;fontSize=16.7;fontColor=#3a414a;spacing=3.8;strokeColor=#3a414a;strokeOpacity=100;rounded=1;absoluteArcSize=1;arcSize=9;strokeWidth=0.8;lucidId=xjEQtoVPpX7N;" parent="1" vertex="1">
          <mxGeometry x="645" y="703" width="120" height="90" as="geometry" />
        </mxCell>
        <mxCell id="S80QuY6IthFkzWMJONJ6-25" value="" style="html=1;jettySize=18;whiteSpace=wrap;fontSize=13;strokeColor=#3a414a;strokeOpacity=100;strokeWidth=0.8;rounded=1;arcSize=12;edgeStyle=orthogonalEdgeStyle;startArrow=none;endArrow=none;exitX=1.003;exitY=0.5;exitPerimeter=0;entryX=0.016;entryY=0.5;entryPerimeter=0;lucidId=CjEQ1WQ_Jceo;" parent="1" source="S80QuY6IthFkzWMJONJ6-18" target="S80QuY6IthFkzWMJONJ6-24" edge="1">
          <mxGeometry width="100" height="100" relative="1" as="geometry">
            <Array as="points" />
          </mxGeometry>
        </mxCell>
        <mxCell id="S80QuY6IthFkzWMJONJ6-26" value="" style="html=1;jettySize=18;whiteSpace=wrap;fontSize=13;strokeColor=#3a414a;strokeOpacity=100;strokeWidth=0.8;rounded=1;arcSize=12;edgeStyle=orthogonalEdgeStyle;startArrow=none;endArrow=none;exitX=0.984;exitY=0.5;exitPerimeter=0;lucidId=EjEQ8xeUZs5j;" parent="1" source="S80QuY6IthFkzWMJONJ6-24" edge="1">
          <mxGeometry width="100" height="100" relative="1" as="geometry">
            <Array as="points" />
            <mxPoint x="915" y="590" as="targetPoint" />
          </mxGeometry>
        </mxCell>
        <mxCell id="S80QuY6IthFkzWMJONJ6-27" value="Takes" style="html=1;overflow=block;blockSpacing=1;whiteSpace=wrap;rhombus;fontSize=16.7;fontColor=#3a414a;spacing=3.8;strokeColor=#3a414a;strokeOpacity=100;rounded=1;absoluteArcSize=1;arcSize=9;strokeWidth=0.8;lucidId=YmEQTsb6WZVF;" parent="1" vertex="1">
          <mxGeometry x="300" y="425" width="120" height="90" as="geometry" />
        </mxCell>
        <mxCell id="S80QuY6IthFkzWMJONJ6-28" value="" style="html=1;jettySize=18;whiteSpace=wrap;fontSize=13;strokeColor=#3a414a;strokeOpacity=100;strokeWidth=0.8;rounded=1;arcSize=12;edgeStyle=orthogonalEdgeStyle;startArrow=none;endArrow=none;exitX=0.5;exitY=-0.006;exitPerimeter=0;entryX=0.5;entryY=0.988;entryPerimeter=0;lucidId=9mEQhfkP1P~V;" parent="1" source="S80QuY6IthFkzWMJONJ6-17" target="S80QuY6IthFkzWMJONJ6-27" edge="1">
          <mxGeometry width="100" height="100" relative="1" as="geometry">
            <Array as="points" />
          </mxGeometry>
        </mxCell>
        <mxCell id="EDwrjuHku3MKhbdXHICR-16" style="edgeStyle=orthogonalEdgeStyle;rounded=0;orthogonalLoop=1;jettySize=auto;html=1;exitX=1;exitY=0.5;exitDx=0;exitDy=0;endArrow=none;endFill=0;" edge="1" parent="1" source="S80QuY6IthFkzWMJONJ6-35" target="S80QuY6IthFkzWMJONJ6-7">
          <mxGeometry relative="1" as="geometry" />
        </mxCell>
        <mxCell id="EDwrjuHku3MKhbdXHICR-51" style="edgeStyle=orthogonalEdgeStyle;rounded=0;orthogonalLoop=1;jettySize=auto;html=1;exitX=0;exitY=0.5;exitDx=0;exitDy=0;entryX=1;entryY=0.5;entryDx=0;entryDy=0;endArrow=none;endFill=0;" edge="1" parent="1" source="S80QuY6IthFkzWMJONJ6-35" target="EDwrjuHku3MKhbdXHICR-50">
          <mxGeometry relative="1" as="geometry" />
        </mxCell>
        <mxCell id="S80QuY6IthFkzWMJONJ6-35" value="Does" style="html=1;overflow=block;blockSpacing=1;whiteSpace=wrap;rhombus;fontSize=16.7;fontColor=#3a414a;spacing=3.8;strokeColor=#3a414a;strokeOpacity=100;rounded=1;absoluteArcSize=1;arcSize=9;strokeWidth=0.8;lucidId=-nEQ.9lkf2ao;" parent="1" vertex="1">
          <mxGeometry x="850" y="230" width="120" height="90" as="geometry" />
        </mxCell>
        <mxCell id="S80QuY6IthFkzWMJONJ6-40" value="Bartender" style="html=1;overflow=block;blockSpacing=1;whiteSpace=wrap;rounded=1;arcSize=50;fontSize=16.7;fontColor=#3a414a;spacing=3.8;strokeColor=#3a414a;strokeOpacity=100;strokeWidth=0.8;lucidId=SqEQ4tKMFJMG;" parent="1" vertex="1">
          <mxGeometry x="225" y="815" width="120" height="60" as="geometry" />
        </mxCell>
        <mxCell id="S80QuY6IthFkzWMJONJ6-41" value="" style="html=1;jettySize=18;whiteSpace=wrap;fontSize=13;strokeColor=#3a414a;strokeOpacity=100;strokeWidth=0.8;rounded=1;arcSize=12;edgeStyle=orthogonalEdgeStyle;startArrow=none;endArrow=none;exitX=-0.003;exitY=0.5;exitPerimeter=0;entryX=0.5;entryY=-0.008;entryPerimeter=0;lucidId=arEQ--NOtVzf;" parent="1" source="S80QuY6IthFkzWMJONJ6-40" target="S80QuY6IthFkzWMJONJ6-16" edge="1">
          <mxGeometry width="100" height="100" relative="1" as="geometry">
            <Array as="points">
              <mxPoint x="213" y="845" />
              <mxPoint x="213" y="718" />
            </Array>
          </mxGeometry>
        </mxCell>
        <mxCell id="S80QuY6IthFkzWMJONJ6-42" value="" style="html=1;jettySize=18;whiteSpace=wrap;fontSize=13;strokeColor=#3a414a;strokeOpacity=100;strokeWidth=0.8;rounded=1;arcSize=12;edgeStyle=orthogonalEdgeStyle;startArrow=none;endArrow=none;exitX=1.003;exitY=0.5;exitPerimeter=0;entryX=0.5;entryY=0.988;entryPerimeter=0;lucidId=lrEQm4e8vdDJ;" parent="1" source="S80QuY6IthFkzWMJONJ6-40" target="S80QuY6IthFkzWMJONJ6-24" edge="1">
          <mxGeometry width="100" height="100" relative="1" as="geometry">
            <Array as="points" />
          </mxGeometry>
        </mxCell>
        <mxCell id="S80QuY6IthFkzWMJONJ6-48" value="n" style="html=1;overflow=block;blockSpacing=1;whiteSpace=wrap;fontSize=16.7;fontColor=#3a414a;spacing=3.8;strokeOpacity=0;fillOpacity=0;rounded=1;absoluteArcSize=1;arcSize=9;fillColor=#ffffff;strokeWidth=0.8;lucidId=syEQALBLiEX-;" parent="1" vertex="1">
          <mxGeometry x="1090" y="305" width="15" height="45" as="geometry" />
        </mxCell>
        <mxCell id="S80QuY6IthFkzWMJONJ6-49" value="1" style="html=1;overflow=block;blockSpacing=1;whiteSpace=wrap;fontSize=16.7;fontColor=#3a414a;spacing=3.8;strokeOpacity=0;fillOpacity=0;rounded=1;absoluteArcSize=1;arcSize=9;fillColor=#ffffff;strokeWidth=0.8;lucidId=GyEQcYIGnGoh;" parent="1" vertex="1">
          <mxGeometry x="1090" y="410" width="15" height="45" as="geometry" />
        </mxCell>
        <mxCell id="S80QuY6IthFkzWMJONJ6-66" value="1" style="html=1;overflow=block;blockSpacing=1;whiteSpace=wrap;fontSize=16.7;fontColor=#3a414a;spacing=3.8;strokeOpacity=0;fillOpacity=0;rounded=1;absoluteArcSize=1;arcSize=9;fillColor=#ffffff;strokeWidth=0.8;lucidId=syEQALBLiEX-;" parent="1" vertex="1">
          <mxGeometry x="966" y="244" width="15" height="45" as="geometry" />
        </mxCell>
        <mxCell id="S80QuY6IthFkzWMJONJ6-76" value="n" style="html=1;overflow=block;blockSpacing=1;whiteSpace=wrap;fontSize=16.7;fontColor=#3a414a;spacing=3.8;strokeOpacity=0;fillOpacity=0;rounded=1;absoluteArcSize=1;arcSize=9;fillColor=#ffffff;strokeWidth=0.8;lucidId=kEEQ2s.TJrN8;" parent="1" vertex="1">
          <mxGeometry x="965" y="650" width="15" height="45" as="geometry" />
        </mxCell>
        <mxCell id="S80QuY6IthFkzWMJONJ6-77" value="m" style="html=1;overflow=block;blockSpacing=1;whiteSpace=wrap;fontSize=16.7;fontColor=#3a414a;spacing=3.8;strokeOpacity=0;fillOpacity=0;rounded=1;absoluteArcSize=1;arcSize=9;fillColor=#ffffff;strokeWidth=0.8;lucidId=syEQALBLiEX-;" parent="1" vertex="1">
          <mxGeometry x="1080" y="652" width="15" height="45" as="geometry" />
        </mxCell>
        <mxCell id="S80QuY6IthFkzWMJONJ6-78" value="n" style="html=1;overflow=block;blockSpacing=1;whiteSpace=wrap;fontSize=16.7;fontColor=#3a414a;spacing=3.8;strokeOpacity=0;fillOpacity=0;rounded=1;absoluteArcSize=1;arcSize=9;fillColor=#ffffff;strokeWidth=0.8;lucidId=syEQALBLiEX-;" parent="1" vertex="1">
          <mxGeometry x="640" y="545" width="15" height="45" as="geometry" />
        </mxCell>
        <mxCell id="S80QuY6IthFkzWMJONJ6-79" value="1" style="html=1;overflow=block;blockSpacing=1;whiteSpace=wrap;fontSize=16.7;fontColor=#3a414a;spacing=3.8;strokeOpacity=0;fillOpacity=0;rounded=1;absoluteArcSize=1;arcSize=9;fillColor=#ffffff;strokeWidth=0.8;lucidId=syEQALBLiEX-;" parent="1" vertex="1">
          <mxGeometry x="762" y="550" width="15" height="45" as="geometry" />
        </mxCell>
        <mxCell id="S80QuY6IthFkzWMJONJ6-80" value="m" style="html=1;overflow=block;blockSpacing=1;whiteSpace=wrap;fontSize=16.7;fontColor=#3a414a;spacing=3.8;strokeOpacity=0;fillOpacity=0;rounded=1;absoluteArcSize=1;arcSize=9;fillColor=#ffffff;strokeWidth=0.8;lucidId=syEQALBLiEX-;" parent="1" vertex="1">
          <mxGeometry x="750" y="703" width="15" height="45" as="geometry" />
        </mxCell>
        <mxCell id="S80QuY6IthFkzWMJONJ6-81" value="n" style="html=1;overflow=block;blockSpacing=1;whiteSpace=wrap;fontSize=16.7;fontColor=#3a414a;spacing=3.8;strokeOpacity=0;fillOpacity=0;rounded=1;absoluteArcSize=1;arcSize=9;fillColor=#ffffff;strokeWidth=0.8;lucidId=syEQALBLiEX-;" parent="1" vertex="1">
          <mxGeometry x="645" y="703" width="15" height="45" as="geometry" />
        </mxCell>
        <mxCell id="S80QuY6IthFkzWMJONJ6-82" value="k" style="html=1;overflow=block;blockSpacing=1;whiteSpace=wrap;fontSize=16.7;fontColor=#3a414a;spacing=3.8;strokeOpacity=0;fillOpacity=0;rounded=1;absoluteArcSize=1;arcSize=9;fillColor=#ffffff;strokeWidth=0.8;lucidId=syEQALBLiEX-;" parent="1" vertex="1">
          <mxGeometry x="710" y="776" width="15" height="45" as="geometry" />
        </mxCell>
        <mxCell id="S80QuY6IthFkzWMJONJ6-83" value="n" style="html=1;overflow=block;blockSpacing=1;whiteSpace=wrap;fontSize=16.7;fontColor=#3a414a;spacing=3.8;strokeOpacity=0;fillOpacity=0;rounded=1;absoluteArcSize=1;arcSize=9;fillColor=#ffffff;strokeWidth=0.8;lucidId=syEQALBLiEX-;" parent="1" vertex="1">
          <mxGeometry x="344" y="496" width="15" height="45" as="geometry" />
        </mxCell>
        <mxCell id="S80QuY6IthFkzWMJONJ6-84" value="1" style="html=1;overflow=block;blockSpacing=1;whiteSpace=wrap;fontSize=16.7;fontColor=#3a414a;spacing=3.8;strokeOpacity=0;fillOpacity=0;rounded=1;absoluteArcSize=1;arcSize=9;fillColor=#ffffff;strokeWidth=0.8;lucidId=syEQALBLiEX-;" parent="1" vertex="1">
          <mxGeometry x="343" y="395" width="15" height="45" as="geometry" />
        </mxCell>
        <mxCell id="S80QuY6IthFkzWMJONJ6-85" value="1" style="html=1;overflow=block;blockSpacing=1;whiteSpace=wrap;fontSize=16.7;fontColor=#3a414a;spacing=3.8;strokeOpacity=0;fillOpacity=0;rounded=1;absoluteArcSize=1;arcSize=9;fillColor=#ffffff;strokeWidth=0.8;lucidId=syEQALBLiEX-;" parent="1" vertex="1">
          <mxGeometry x="147" y="680" width="15" height="45" as="geometry" />
        </mxCell>
        <mxCell id="S80QuY6IthFkzWMJONJ6-86" value="" style="endArrow=none;html=1;rounded=0;exitX=0.99;exitY=0.597;exitDx=0;exitDy=0;exitPerimeter=0;entryX=0.5;entryY=1;entryDx=0;entryDy=0;" parent="1" source="S80QuY6IthFkzWMJONJ6-6" target="S80QuY6IthFkzWMJONJ6-16" edge="1">
          <mxGeometry width="50" height="50" relative="1" as="geometry">
            <mxPoint x="130" y="730" as="sourcePoint" />
            <mxPoint x="180" y="680" as="targetPoint" />
          </mxGeometry>
        </mxCell>
        <mxCell id="EDwrjuHku3MKhbdXHICR-18" style="edgeStyle=orthogonalEdgeStyle;rounded=0;orthogonalLoop=1;jettySize=auto;html=1;exitX=0;exitY=0.75;exitDx=0;exitDy=0;entryX=0;entryY=0.5;entryDx=0;entryDy=0;endArrow=none;endFill=0;" edge="1" parent="1" source="S80QuY6IthFkzWMJONJ6-87" target="EDwrjuHku3MKhbdXHICR-17">
          <mxGeometry relative="1" as="geometry">
            <Array as="points">
              <mxPoint x="210" y="714" />
              <mxPoint x="210" y="930" />
            </Array>
          </mxGeometry>
        </mxCell>
        <mxCell id="S80QuY6IthFkzWMJONJ6-87" value="1" style="html=1;overflow=block;blockSpacing=1;whiteSpace=wrap;fontSize=16.7;fontColor=#3a414a;spacing=3.8;strokeOpacity=0;fillOpacity=0;rounded=1;absoluteArcSize=1;arcSize=9;fillColor=#ffffff;strokeWidth=0.8;lucidId=syEQALBLiEX-;" parent="1" vertex="1">
          <mxGeometry x="195" y="680" width="15" height="45" as="geometry" />
        </mxCell>
        <mxCell id="S80QuY6IthFkzWMJONJ6-94" value="O" style="html=1;overflow=block;blockSpacing=1;whiteSpace=wrap;fontSize=16.7;fontColor=#3a414a;spacing=3.8;strokeOpacity=0;fillOpacity=0;rounded=1;absoluteArcSize=1;arcSize=9;fillColor=#ffffff;strokeWidth=0.8;lucidId=syEQALBLiEX-;" parent="1" vertex="1">
          <mxGeometry x="266" y="588" width="15" height="45" as="geometry" />
        </mxCell>
        <mxCell id="S80QuY6IthFkzWMJONJ6-95" value="O" style="html=1;overflow=block;blockSpacing=1;whiteSpace=wrap;fontSize=16.7;fontColor=#3a414a;spacing=3.8;strokeOpacity=0;fillOpacity=0;rounded=1;absoluteArcSize=1;arcSize=9;fillColor=#ffffff;strokeWidth=0.8;lucidId=syEQALBLiEX-;" parent="1" vertex="1">
          <mxGeometry x="126" y="680" width="15" height="45" as="geometry" />
        </mxCell>
        <mxCell id="S80QuY6IthFkzWMJONJ6-96" value="T" style="html=1;overflow=block;blockSpacing=1;whiteSpace=wrap;fontSize=16.7;fontColor=#3a414a;spacing=3.8;strokeOpacity=0;fillOpacity=0;rounded=1;absoluteArcSize=1;arcSize=9;fillColor=#ffffff;strokeWidth=0.8;lucidId=syEQALBLiEX-;" parent="1" vertex="1">
          <mxGeometry x="220" y="658" width="15" height="45" as="geometry" />
        </mxCell>
        <mxCell id="S80QuY6IthFkzWMJONJ6-97" value="T" style="html=1;overflow=block;blockSpacing=1;whiteSpace=wrap;fontSize=16.7;fontColor=#3a414a;spacing=3.8;strokeOpacity=0;fillOpacity=0;rounded=1;absoluteArcSize=1;arcSize=9;fillColor=#ffffff;strokeWidth=0.8;lucidId=syEQALBLiEX-;" parent="1" vertex="1">
          <mxGeometry x="220" y="770" width="15" height="45" as="geometry" />
        </mxCell>
        <mxCell id="S80QuY6IthFkzWMJONJ6-98" value="T" style="html=1;overflow=block;blockSpacing=1;whiteSpace=wrap;fontSize=16.7;fontColor=#3a414a;spacing=3.8;strokeOpacity=0;fillOpacity=0;rounded=1;absoluteArcSize=1;arcSize=9;fillColor=#ffffff;strokeWidth=0.8;lucidId=syEQALBLiEX-;" parent="1" vertex="1">
          <mxGeometry x="210" y="850" width="15" height="45" as="geometry" />
        </mxCell>
        <mxCell id="S80QuY6IthFkzWMJONJ6-99" value="O" style="html=1;overflow=block;blockSpacing=1;whiteSpace=wrap;fontSize=16.7;fontColor=#3a414a;spacing=3.8;strokeOpacity=0;fillOpacity=0;rounded=1;absoluteArcSize=1;arcSize=9;fillColor=#ffffff;strokeWidth=0.8;lucidId=syEQALBLiEX-;" parent="1" vertex="1">
          <mxGeometry x="347" y="703" width="15" height="45" as="geometry" />
        </mxCell>
        <mxCell id="S80QuY6IthFkzWMJONJ6-100" value="T" style="html=1;overflow=block;blockSpacing=1;whiteSpace=wrap;fontSize=16.7;fontColor=#3a414a;spacing=3.8;strokeOpacity=0;fillOpacity=0;rounded=1;absoluteArcSize=1;arcSize=9;fillColor=#ffffff;strokeWidth=0.8;lucidId=syEQALBLiEX-;" parent="1" vertex="1">
          <mxGeometry x="900" y="496" width="15" height="45" as="geometry" />
        </mxCell>
        <mxCell id="S80QuY6IthFkzWMJONJ6-101" value="O" style="html=1;overflow=block;blockSpacing=1;whiteSpace=wrap;fontSize=16.7;fontColor=#3a414a;spacing=3.8;strokeOpacity=0;fillOpacity=0;rounded=1;absoluteArcSize=1;arcSize=9;fillColor=#ffffff;strokeWidth=0.8;lucidId=syEQALBLiEX-;" parent="1" vertex="1">
          <mxGeometry x="345" y="613" width="15" height="45" as="geometry" />
        </mxCell>
        <mxCell id="S80QuY6IthFkzWMJONJ6-103" value="O" style="html=1;overflow=block;blockSpacing=1;whiteSpace=wrap;fontSize=16.7;fontColor=#3a414a;spacing=3.8;strokeOpacity=0;fillOpacity=0;rounded=1;absoluteArcSize=1;arcSize=9;fillColor=#ffffff;strokeWidth=0.8;lucidId=syEQALBLiEX-;" parent="1" vertex="1">
          <mxGeometry x="347" y="805" width="15" height="45" as="geometry" />
        </mxCell>
        <mxCell id="S80QuY6IthFkzWMJONJ6-106" value="O" style="html=1;overflow=block;blockSpacing=1;whiteSpace=wrap;fontSize=16.7;fontColor=#3a414a;spacing=3.8;strokeOpacity=0;fillOpacity=0;rounded=1;absoluteArcSize=1;arcSize=9;fillColor=#ffffff;strokeWidth=0.8;lucidId=syEQALBLiEX-;" parent="1" vertex="1">
          <mxGeometry x="1115" y="650" width="15" height="45" as="geometry" />
        </mxCell>
        <mxCell id="S80QuY6IthFkzWMJONJ6-107" value="T" style="html=1;overflow=block;blockSpacing=1;whiteSpace=wrap;fontSize=16.7;fontColor=#3a414a;spacing=3.8;strokeOpacity=0;fillOpacity=0;rounded=1;absoluteArcSize=1;arcSize=9;fillColor=#ffffff;strokeWidth=0.8;lucidId=syEQALBLiEX-;" parent="1" vertex="1">
          <mxGeometry x="945" y="493" width="15" height="45" as="geometry" />
        </mxCell>
        <mxCell id="EDwrjuHku3MKhbdXHICR-13" style="edgeStyle=orthogonalEdgeStyle;rounded=0;orthogonalLoop=1;jettySize=auto;html=1;exitX=0;exitY=1;exitDx=0;exitDy=0;entryX=0.5;entryY=1;entryDx=0;entryDy=0;endArrow=none;endFill=0;" edge="1" parent="1" target="S80QuY6IthFkzWMJONJ6-11">
          <mxGeometry relative="1" as="geometry">
            <mxPoint x="975" y="469" as="sourcePoint" />
            <mxPoint x="1030" y="390" as="targetPoint" />
          </mxGeometry>
        </mxCell>
        <mxCell id="S80QuY6IthFkzWMJONJ6-108" value="T" style="html=1;overflow=block;blockSpacing=1;whiteSpace=wrap;fontSize=16.7;fontColor=#3a414a;spacing=3.8;strokeOpacity=0;fillOpacity=0;rounded=1;absoluteArcSize=1;arcSize=9;fillColor=#ffffff;strokeWidth=0.8;lucidId=syEQALBLiEX-;" parent="1" vertex="1">
          <mxGeometry x="975" y="425" width="15" height="45" as="geometry" />
        </mxCell>
        <mxCell id="S80QuY6IthFkzWMJONJ6-120" value="&lt;h1 style=&quot;font-size: 25px;&quot;&gt;&lt;font style=&quot;font-size: 25px;&quot;&gt;Attribute list&lt;/font&gt;&lt;/h1&gt;&lt;p style=&quot;font-size: 25px;&quot;&gt;&lt;font style=&quot;font-size: 25px;&quot;&gt;Employee: employee id (PK), employee type, name, password&lt;/font&gt;&lt;/p&gt;&lt;p style=&quot;font-size: 25px;&quot;&gt;&lt;font style=&quot;font-size: 25px;&quot;&gt;Chef:(PK,FK) employee id , employee_type&lt;/font&gt;&lt;/p&gt;&lt;p style=&quot;font-size: 25px;&quot;&gt;&lt;font style=&quot;font-size: 25px;&quot;&gt;Waiter:(PK,FK) employee id , employee_type&lt;br&gt;&lt;/font&gt;&lt;/p&gt;&lt;p style=&quot;font-size: 25px;&quot;&gt;&lt;font style=&quot;font-size: 25px;&quot;&gt;Bartender:(PK,FK) employee id , employee_type&lt;br&gt;&lt;/font&gt;&lt;/p&gt;&lt;p style=&quot;font-size: 25px;&quot;&gt;&lt;font style=&quot;font-size: 25px;&quot;&gt;Manager:(PK,FK) employee id, employee_type&lt;/font&gt;&lt;/p&gt;&lt;p style=&quot;font-size: 25px;&quot;&gt;&lt;span style=&quot;background-color: initial;&quot;&gt;Order: order id (PK), table number, total price, payment method&lt;/span&gt;&lt;br&gt;&lt;/p&gt;&lt;p style=&quot;font-size: 25px;&quot;&gt;&lt;font style=&quot;font-size: 25px;&quot;&gt;Table: table number (PK), capacity, ocuppied&lt;/font&gt;&lt;/p&gt;&lt;p style=&quot;font-size: 25px;&quot;&gt;&lt;span style=&quot;background-color: initial;&quot;&gt;Menu Item: menu item id (PK), description, price&lt;/span&gt;&lt;br&gt;&lt;/p&gt;&lt;p style=&quot;font-size: 25px;&quot;&gt;&lt;font style=&quot;font-size: 25px;&quot;&gt;InventoryItem: itemId (PK), iteamName, quantity&lt;/font&gt;&lt;/p&gt;&lt;p style=&quot;font-size: 25px;&quot;&gt;&lt;font style=&quot;font-size: 25px;&quot;&gt;Payment: reference id (PK), amount&lt;/font&gt;&lt;/p&gt;&lt;p style=&quot;font-size: 25px;&quot;&gt;&lt;font style=&quot;font-size: 25px;&quot;&gt;Bill: billId(PK), reference&amp;nbsp;id(FK)&lt;/font&gt;&lt;/p&gt;&lt;p style=&quot;font-size: 25px;&quot;&gt;&lt;font style=&quot;font-size: 25px;&quot;&gt;Drink: menu item id(PK, FK), drink name, price&lt;/font&gt;&lt;/p&gt;&lt;p style=&quot;font-size: 25px;&quot;&gt;&lt;font style=&quot;font-size: 25px;&quot;&gt;Food: menu item id(PK, FK), food name, price&lt;/font&gt;&lt;/p&gt;&lt;p style=&quot;font-size: 25px;&quot;&gt;&lt;font style=&quot;font-size: 25px;&quot;&gt;&lt;br&gt;&lt;/font&gt;&lt;/p&gt;&lt;p style=&quot;font-size: 25px;&quot;&gt;&lt;font style=&quot;font-size: 25px;&quot;&gt;&lt;br&gt;&lt;/font&gt;&lt;/p&gt;&lt;p style=&quot;font-size: 25px;&quot;&gt;&lt;font style=&quot;font-size: 25px;&quot;&gt;&lt;br&gt;&lt;/font&gt;&lt;/p&gt;&lt;p style=&quot;font-size: 25px;&quot;&gt;&lt;font style=&quot;font-size: 25px;&quot;&gt;&lt;br&gt;&lt;/font&gt;&lt;/p&gt;" style="text;html=1;strokeColor=none;fillColor=none;spacing=5;spacingTop=-20;whiteSpace=wrap;overflow=hidden;rounded=0;" parent="1" vertex="1">
          <mxGeometry x="40" y="1040" width="910" height="830" as="geometry" />
        </mxCell>
        <mxCell id="EDwrjuHku3MKhbdXHICR-78" style="edgeStyle=orthogonalEdgeStyle;rounded=0;orthogonalLoop=1;jettySize=auto;html=1;exitX=0.5;exitY=1;exitDx=0;exitDy=0;entryX=0.5;entryY=0;entryDx=0;entryDy=0;endArrow=none;endFill=0;" edge="1" parent="1" source="EDwrjuHku3MKhbdXHICR-1" target="S80QuY6IthFkzWMJONJ6-1">
          <mxGeometry relative="1" as="geometry" />
        </mxCell>
        <mxCell id="EDwrjuHku3MKhbdXHICR-1" value="IS_A" style="html=1;overflow=block;blockSpacing=1;whiteSpace=wrap;triangle;direction=south;anchorPointDirection=0;fontSize=16.7;fontColor=#3a414a;spacing=3.8;strokeColor=#3a414a;strokeOpacity=100;rounded=1;absoluteArcSize=1;arcSize=9;rotation=0;strokeWidth=0.8;lucidId=~hEQePkiE7fA;" vertex="1" parent="1">
          <mxGeometry x="1152.5" y="597" width="75" height="45" as="geometry" />
        </mxCell>
        <mxCell id="EDwrjuHku3MKhbdXHICR-8" style="edgeStyle=orthogonalEdgeStyle;rounded=0;orthogonalLoop=1;jettySize=auto;html=1;exitX=1;exitY=0.5;exitDx=0;exitDy=0;entryX=0.5;entryY=0;entryDx=0;entryDy=0;endArrow=none;endFill=0;" edge="1" parent="1" source="EDwrjuHku3MKhbdXHICR-2" target="EDwrjuHku3MKhbdXHICR-1">
          <mxGeometry relative="1" as="geometry" />
        </mxCell>
        <mxCell id="EDwrjuHku3MKhbdXHICR-2" value="Drink" style="html=1;overflow=block;blockSpacing=1;whiteSpace=wrap;rounded=1;arcSize=50;fontSize=16.7;fontColor=#3a414a;spacing=3.8;strokeColor=#3a414a;strokeOpacity=100;strokeWidth=0.8;lucidId=h.DQC96e93he;" vertex="1" parent="1">
          <mxGeometry x="1040" y="538" width="120" height="60" as="geometry" />
        </mxCell>
        <mxCell id="EDwrjuHku3MKhbdXHICR-9" style="edgeStyle=orthogonalEdgeStyle;rounded=0;orthogonalLoop=1;jettySize=auto;html=1;exitX=0;exitY=0.5;exitDx=0;exitDy=0;entryX=0.5;entryY=0;entryDx=0;entryDy=0;endArrow=none;endFill=0;" edge="1" parent="1" source="EDwrjuHku3MKhbdXHICR-3" target="EDwrjuHku3MKhbdXHICR-1">
          <mxGeometry relative="1" as="geometry" />
        </mxCell>
        <mxCell id="EDwrjuHku3MKhbdXHICR-3" value="Food" style="html=1;overflow=block;blockSpacing=1;whiteSpace=wrap;rounded=1;arcSize=50;fontSize=16.7;fontColor=#3a414a;spacing=3.8;strokeColor=#3a414a;strokeOpacity=100;strokeWidth=0.8;lucidId=h.DQC96e93he;" vertex="1" parent="1">
          <mxGeometry x="1227.5" y="538" width="120" height="60" as="geometry" />
        </mxCell>
        <mxCell id="EDwrjuHku3MKhbdXHICR-30" style="edgeStyle=orthogonalEdgeStyle;rounded=0;orthogonalLoop=1;jettySize=auto;html=1;exitX=1;exitY=0.5;exitDx=0;exitDy=0;entryX=0;entryY=0.5;entryDx=0;entryDy=0;endArrow=none;endFill=0;" edge="1" parent="1" source="EDwrjuHku3MKhbdXHICR-17" target="EDwrjuHku3MKhbdXHICR-29">
          <mxGeometry relative="1" as="geometry" />
        </mxCell>
        <mxCell id="EDwrjuHku3MKhbdXHICR-17" value="Manager" style="html=1;overflow=block;blockSpacing=1;whiteSpace=wrap;rounded=1;arcSize=50;fontSize=16.7;fontColor=#3a414a;spacing=3.8;strokeColor=#3a414a;strokeOpacity=100;strokeWidth=0.8;lucidId=SqEQ4tKMFJMG;" vertex="1" parent="1">
          <mxGeometry x="227" y="900" width="120" height="60" as="geometry" />
        </mxCell>
        <mxCell id="EDwrjuHku3MKhbdXHICR-19" value="T" style="html=1;overflow=block;blockSpacing=1;whiteSpace=wrap;fontSize=16.7;fontColor=#3a414a;spacing=3.8;strokeOpacity=0;fillOpacity=0;rounded=1;absoluteArcSize=1;arcSize=9;fillColor=#ffffff;strokeWidth=0.8;lucidId=syEQALBLiEX-;" vertex="1" parent="1">
          <mxGeometry x="212" y="930" width="15" height="45" as="geometry" />
        </mxCell>
        <mxCell id="EDwrjuHku3MKhbdXHICR-32" style="edgeStyle=orthogonalEdgeStyle;rounded=0;orthogonalLoop=1;jettySize=auto;html=1;exitX=0.5;exitY=1;exitDx=0;exitDy=0;endArrow=none;endFill=0;" edge="1" parent="1" source="EDwrjuHku3MKhbdXHICR-29">
          <mxGeometry relative="1" as="geometry">
            <mxPoint x="70" y="750" as="targetPoint" />
          </mxGeometry>
        </mxCell>
        <mxCell id="EDwrjuHku3MKhbdXHICR-43" style="edgeStyle=orthogonalEdgeStyle;rounded=0;orthogonalLoop=1;jettySize=auto;html=1;exitX=1;exitY=0.5;exitDx=0;exitDy=0;entryX=0;entryY=0.5;entryDx=0;entryDy=0;endArrow=none;endFill=0;" edge="1" parent="1" source="EDwrjuHku3MKhbdXHICR-29" target="EDwrjuHku3MKhbdXHICR-39">
          <mxGeometry relative="1" as="geometry" />
        </mxCell>
        <mxCell id="EDwrjuHku3MKhbdXHICR-29" value="Manages" style="html=1;overflow=block;blockSpacing=1;whiteSpace=wrap;rhombus;fontSize=16.7;fontColor=#3a414a;spacing=3.8;strokeColor=#3a414a;strokeOpacity=100;rounded=1;absoluteArcSize=1;arcSize=9;strokeWidth=0.8;lucidId=xjEQtoVPpX7N;" vertex="1" parent="1">
          <mxGeometry x="690" y="885" width="120" height="90" as="geometry" />
        </mxCell>
        <mxCell id="EDwrjuHku3MKhbdXHICR-33" value="1" style="html=1;overflow=block;blockSpacing=1;whiteSpace=wrap;fontSize=16.7;fontColor=#3a414a;spacing=3.8;strokeOpacity=0;fillOpacity=0;rounded=1;absoluteArcSize=1;arcSize=9;fillColor=#ffffff;strokeWidth=0.8;lucidId=syEQALBLiEX-;" vertex="1" parent="1">
          <mxGeometry x="750" y="960" width="15" height="45" as="geometry" />
        </mxCell>
        <mxCell id="EDwrjuHku3MKhbdXHICR-34" value="1" style="html=1;overflow=block;blockSpacing=1;whiteSpace=wrap;fontSize=16.7;fontColor=#3a414a;spacing=3.8;strokeOpacity=0;fillOpacity=0;rounded=1;absoluteArcSize=1;arcSize=9;fillColor=#ffffff;strokeWidth=0.8;lucidId=syEQALBLiEX-;" vertex="1" parent="1">
          <mxGeometry x="795" y="894" width="15" height="45" as="geometry" />
        </mxCell>
        <mxCell id="EDwrjuHku3MKhbdXHICR-35" value="n" style="html=1;overflow=block;blockSpacing=1;whiteSpace=wrap;fontSize=16.7;fontColor=#3a414a;spacing=3.8;strokeOpacity=0;fillOpacity=0;rounded=1;absoluteArcSize=1;arcSize=9;fillColor=#ffffff;strokeWidth=0.8;lucidId=syEQALBLiEX-;" vertex="1" parent="1">
          <mxGeometry x="680" y="895" width="15" height="45" as="geometry" />
        </mxCell>
        <mxCell id="EDwrjuHku3MKhbdXHICR-36" value="O" style="html=1;overflow=block;blockSpacing=1;whiteSpace=wrap;fontSize=16.7;fontColor=#3a414a;spacing=3.8;strokeOpacity=0;fillOpacity=0;rounded=1;absoluteArcSize=1;arcSize=9;fillColor=#ffffff;strokeWidth=0.8;lucidId=syEQALBLiEX-;" vertex="1" parent="1">
          <mxGeometry x="346" y="894" width="15" height="45" as="geometry" />
        </mxCell>
        <mxCell id="EDwrjuHku3MKhbdXHICR-37" value="O" style="html=1;overflow=block;blockSpacing=1;whiteSpace=wrap;fontSize=16.7;fontColor=#3a414a;spacing=3.8;strokeOpacity=0;fillOpacity=0;rounded=1;absoluteArcSize=1;arcSize=9;fillColor=#ffffff;strokeWidth=0.8;lucidId=syEQALBLiEX-;" vertex="1" parent="1">
          <mxGeometry x="1190" y="703" width="15" height="45" as="geometry" />
        </mxCell>
        <mxCell id="EDwrjuHku3MKhbdXHICR-38" value="O" style="html=1;overflow=block;blockSpacing=1;whiteSpace=wrap;fontSize=16.7;fontColor=#3a414a;spacing=3.8;strokeOpacity=0;fillOpacity=0;rounded=1;absoluteArcSize=1;arcSize=9;fillColor=#ffffff;strokeWidth=0.8;lucidId=syEQALBLiEX-;" vertex="1" parent="1">
          <mxGeometry x="70" y="733" width="15" height="45" as="geometry" />
        </mxCell>
        <mxCell id="EDwrjuHku3MKhbdXHICR-45" style="edgeStyle=orthogonalEdgeStyle;rounded=0;orthogonalLoop=1;jettySize=auto;html=1;exitX=1;exitY=0.5;exitDx=0;exitDy=0;entryX=0;entryY=0.5;entryDx=0;entryDy=0;endArrow=none;endFill=0;" edge="1" parent="1" source="EDwrjuHku3MKhbdXHICR-39" target="EDwrjuHku3MKhbdXHICR-44">
          <mxGeometry relative="1" as="geometry" />
        </mxCell>
        <mxCell id="EDwrjuHku3MKhbdXHICR-39" value="InventoryItem" style="html=1;overflow=block;blockSpacing=1;whiteSpace=wrap;rounded=1;arcSize=50;fontSize=16.7;fontColor=#3a414a;spacing=3.8;strokeColor=#3a414a;strokeOpacity=100;strokeWidth=0.8;lucidId=SqEQ4tKMFJMG;" vertex="1" parent="1">
          <mxGeometry x="922.5" y="900" width="120" height="60" as="geometry" />
        </mxCell>
        <mxCell id="EDwrjuHku3MKhbdXHICR-46" style="edgeStyle=orthogonalEdgeStyle;rounded=0;orthogonalLoop=1;jettySize=auto;html=1;exitX=0.5;exitY=0;exitDx=0;exitDy=0;entryX=0.5;entryY=1;entryDx=0;entryDy=0;endArrow=none;endFill=0;" edge="1" parent="1" source="EDwrjuHku3MKhbdXHICR-44" target="S80QuY6IthFkzWMJONJ6-1">
          <mxGeometry relative="1" as="geometry">
            <mxPoint x="1160" y="750" as="targetPoint" />
          </mxGeometry>
        </mxCell>
        <mxCell id="EDwrjuHku3MKhbdXHICR-44" value="Consists" style="html=1;overflow=block;blockSpacing=1;whiteSpace=wrap;rhombus;fontSize=16.7;fontColor=#3a414a;spacing=3.8;strokeColor=#3a414a;strokeOpacity=100;rounded=1;absoluteArcSize=1;arcSize=9;strokeWidth=0.8;lucidId=xjEQtoVPpX7N;" vertex="1" parent="1">
          <mxGeometry x="1130" y="885" width="120" height="90" as="geometry" />
        </mxCell>
        <mxCell id="EDwrjuHku3MKhbdXHICR-48" value="n" style="html=1;overflow=block;blockSpacing=1;whiteSpace=wrap;fontSize=16.7;fontColor=#3a414a;spacing=3.8;strokeOpacity=0;fillOpacity=0;rounded=1;absoluteArcSize=1;arcSize=9;fillColor=#ffffff;strokeWidth=0.8;lucidId=kEEQ2s.TJrN8;" vertex="1" parent="1">
          <mxGeometry x="1119" y="900" width="15" height="45" as="geometry" />
        </mxCell>
        <mxCell id="EDwrjuHku3MKhbdXHICR-49" value="m" style="html=1;overflow=block;blockSpacing=1;whiteSpace=wrap;fontSize=16.7;fontColor=#3a414a;spacing=3.8;strokeOpacity=0;fillOpacity=0;rounded=1;absoluteArcSize=1;arcSize=9;fillColor=#ffffff;strokeWidth=0.8;lucidId=syEQALBLiEX-;" vertex="1" parent="1">
          <mxGeometry x="1172" y="855" width="15" height="45" as="geometry" />
        </mxCell>
        <mxCell id="EDwrjuHku3MKhbdXHICR-54" style="edgeStyle=orthogonalEdgeStyle;rounded=0;orthogonalLoop=1;jettySize=auto;html=1;exitX=0;exitY=0.5;exitDx=0;exitDy=0;entryX=1;entryY=0.5;entryDx=0;entryDy=0;endArrow=none;endFill=0;" edge="1" parent="1" source="EDwrjuHku3MKhbdXHICR-50" target="EDwrjuHku3MKhbdXHICR-53">
          <mxGeometry relative="1" as="geometry" />
        </mxCell>
        <mxCell id="EDwrjuHku3MKhbdXHICR-50" value="Payment" style="html=1;overflow=block;blockSpacing=1;whiteSpace=wrap;rounded=1;arcSize=50;fontSize=16.7;fontColor=#3a414a;spacing=3.8;strokeColor=#3a414a;strokeOpacity=100;strokeWidth=0.8;lucidId=BiEQbchatAL5;" vertex="1" parent="1">
          <mxGeometry x="675" y="245" width="120" height="60" as="geometry" />
        </mxCell>
        <mxCell id="EDwrjuHku3MKhbdXHICR-57" style="edgeStyle=orthogonalEdgeStyle;rounded=0;orthogonalLoop=1;jettySize=auto;html=1;exitX=0.5;exitY=1;exitDx=0;exitDy=0;entryX=0.5;entryY=0;entryDx=0;entryDy=0;endArrow=none;endFill=0;" edge="1" parent="1" source="EDwrjuHku3MKhbdXHICR-52" target="S80QuY6IthFkzWMJONJ6-27">
          <mxGeometry relative="1" as="geometry" />
        </mxCell>
        <mxCell id="EDwrjuHku3MKhbdXHICR-52" value="Bill" style="html=1;overflow=block;blockSpacing=1;whiteSpace=wrap;rounded=1;arcSize=50;fontSize=16.7;fontColor=#3a414a;spacing=3.8;strokeColor=#3a414a;strokeOpacity=100;strokeWidth=0.8;lucidId=BiEQbchatAL5;" vertex="1" parent="1">
          <mxGeometry x="299.5" y="244" width="120" height="60" as="geometry" />
        </mxCell>
        <mxCell id="EDwrjuHku3MKhbdXHICR-55" style="edgeStyle=orthogonalEdgeStyle;rounded=0;orthogonalLoop=1;jettySize=auto;html=1;exitX=0;exitY=0.5;exitDx=0;exitDy=0;entryX=1;entryY=0.5;entryDx=0;entryDy=0;endArrow=none;endFill=0;" edge="1" parent="1" source="EDwrjuHku3MKhbdXHICR-53" target="EDwrjuHku3MKhbdXHICR-52">
          <mxGeometry relative="1" as="geometry" />
        </mxCell>
        <mxCell id="EDwrjuHku3MKhbdXHICR-53" value="Pay For" style="html=1;overflow=block;blockSpacing=1;whiteSpace=wrap;rhombus;fontSize=16.7;fontColor=#3a414a;spacing=3.8;strokeColor=#3a414a;strokeOpacity=100;rounded=1;absoluteArcSize=1;arcSize=9;strokeWidth=0.8;lucidId=-nEQ.9lkf2ao;" vertex="1" parent="1">
          <mxGeometry x="480" y="229" width="120" height="90" as="geometry" />
        </mxCell>
        <mxCell id="EDwrjuHku3MKhbdXHICR-59" value="n" style="html=1;overflow=block;blockSpacing=1;whiteSpace=wrap;fontSize=16.7;fontColor=#3a414a;spacing=3.8;strokeOpacity=0;fillOpacity=0;rounded=1;absoluteArcSize=1;arcSize=9;fillColor=#ffffff;strokeWidth=0.8;lucidId=syEQALBLiEX-;" vertex="1" parent="1">
          <mxGeometry x="601" y="240" width="15" height="44" as="geometry" />
        </mxCell>
        <mxCell id="EDwrjuHku3MKhbdXHICR-62" value="1" style="html=1;overflow=block;blockSpacing=1;whiteSpace=wrap;fontSize=16.7;fontColor=#3a414a;spacing=3.8;strokeOpacity=0;fillOpacity=0;rounded=1;absoluteArcSize=1;arcSize=9;fillColor=#ffffff;strokeWidth=0.8;lucidId=syEQALBLiEX-;" vertex="1" parent="1">
          <mxGeometry x="472" y="240" width="15" height="45" as="geometry" />
        </mxCell>
        <mxCell id="EDwrjuHku3MKhbdXHICR-63" value="n" style="html=1;overflow=block;blockSpacing=1;whiteSpace=wrap;fontSize=16.7;fontColor=#3a414a;spacing=3.8;strokeOpacity=0;fillOpacity=0;rounded=1;absoluteArcSize=1;arcSize=9;fillColor=#ffffff;strokeWidth=0.8;lucidId=syEQALBLiEX-;" vertex="1" parent="1">
          <mxGeometry x="838" y="244" width="17" height="40" as="geometry" />
        </mxCell>
        <mxCell id="EDwrjuHku3MKhbdXHICR-65" style="edgeStyle=orthogonalEdgeStyle;rounded=0;orthogonalLoop=1;jettySize=auto;html=1;exitX=1;exitY=0.5;exitDx=0;exitDy=0;entryX=0;entryY=0.5;entryDx=0;entryDy=0;endArrow=none;endFill=0;" edge="1" parent="1" source="EDwrjuHku3MKhbdXHICR-64" target="S80QuY6IthFkzWMJONJ6-2">
          <mxGeometry relative="1" as="geometry" />
        </mxCell>
        <mxCell id="EDwrjuHku3MKhbdXHICR-66" style="edgeStyle=orthogonalEdgeStyle;rounded=0;orthogonalLoop=1;jettySize=auto;html=1;exitX=0;exitY=0.5;exitDx=0;exitDy=0;entryX=0.75;entryY=1;entryDx=0;entryDy=0;endArrow=none;endFill=0;" edge="1" parent="1" source="EDwrjuHku3MKhbdXHICR-64" target="EDwrjuHku3MKhbdXHICR-52">
          <mxGeometry relative="1" as="geometry" />
        </mxCell>
        <mxCell id="EDwrjuHku3MKhbdXHICR-64" value="Consists of" style="html=1;overflow=block;blockSpacing=1;whiteSpace=wrap;rhombus;fontSize=16.7;fontColor=#3a414a;spacing=3.8;strokeColor=#3a414a;strokeOpacity=100;rounded=1;absoluteArcSize=1;arcSize=9;strokeWidth=0.8;lucidId=-nEQ.9lkf2ao;" vertex="1" parent="1">
          <mxGeometry x="570" y="372.5" width="120" height="90" as="geometry" />
        </mxCell>
        <mxCell id="EDwrjuHku3MKhbdXHICR-67" value="n" style="html=1;overflow=block;blockSpacing=1;whiteSpace=wrap;fontSize=16.7;fontColor=#3a414a;spacing=3.8;strokeOpacity=0;fillOpacity=0;rounded=1;absoluteArcSize=1;arcSize=9;fillColor=#ffffff;strokeWidth=0.8;lucidId=syEQALBLiEX-;" vertex="1" parent="1">
          <mxGeometry x="560" y="381" width="15" height="44" as="geometry" />
        </mxCell>
        <mxCell id="EDwrjuHku3MKhbdXHICR-68" value="1" style="html=1;overflow=block;blockSpacing=1;whiteSpace=wrap;fontSize=16.7;fontColor=#3a414a;spacing=3.8;strokeOpacity=0;fillOpacity=0;rounded=1;absoluteArcSize=1;arcSize=9;fillColor=#ffffff;strokeWidth=0.8;lucidId=syEQALBLiEX-;" vertex="1" parent="1">
          <mxGeometry x="682" y="380" width="15" height="45" as="geometry" />
        </mxCell>
        <mxCell id="EDwrjuHku3MKhbdXHICR-69" value="T" style="html=1;overflow=block;blockSpacing=1;whiteSpace=wrap;fontSize=16.7;fontColor=#3a414a;spacing=3.8;strokeOpacity=0;fillOpacity=0;rounded=1;absoluteArcSize=1;arcSize=9;fillColor=#ffffff;strokeWidth=0.8;lucidId=syEQALBLiEX-;" vertex="1" parent="1">
          <mxGeometry x="343" y="290" width="15" height="45" as="geometry" />
        </mxCell>
        <mxCell id="EDwrjuHku3MKhbdXHICR-70" value="T" style="html=1;overflow=block;blockSpacing=1;whiteSpace=wrap;fontSize=16.7;fontColor=#3a414a;spacing=3.8;strokeOpacity=0;fillOpacity=0;rounded=1;absoluteArcSize=1;arcSize=9;fillColor=#ffffff;strokeWidth=0.8;lucidId=syEQALBLiEX-;" vertex="1" parent="1">
          <mxGeometry x="390" y="290" width="15" height="45" as="geometry" />
        </mxCell>
        <mxCell id="EDwrjuHku3MKhbdXHICR-71" value="T" style="html=1;overflow=block;blockSpacing=1;whiteSpace=wrap;fontSize=16.7;fontColor=#3a414a;spacing=3.8;strokeOpacity=0;fillOpacity=0;rounded=1;absoluteArcSize=1;arcSize=9;fillColor=#ffffff;strokeWidth=0.8;lucidId=syEQALBLiEX-;" vertex="1" parent="1">
          <mxGeometry x="838" y="430" width="15" height="45" as="geometry" />
        </mxCell>
        <mxCell id="EDwrjuHku3MKhbdXHICR-72" value="T" style="html=1;overflow=block;blockSpacing=1;whiteSpace=wrap;fontSize=16.7;fontColor=#3a414a;spacing=3.8;strokeOpacity=0;fillOpacity=0;rounded=1;absoluteArcSize=1;arcSize=9;fillColor=#ffffff;strokeWidth=0.8;lucidId=syEQALBLiEX-;" vertex="1" parent="1">
          <mxGeometry x="420" y="239" width="15" height="45" as="geometry" />
        </mxCell>
        <mxCell id="EDwrjuHku3MKhbdXHICR-73" value="T" style="html=1;overflow=block;blockSpacing=1;whiteSpace=wrap;fontSize=16.7;fontColor=#3a414a;spacing=3.8;strokeOpacity=0;fillOpacity=0;rounded=1;absoluteArcSize=1;arcSize=9;fillColor=#ffffff;strokeWidth=0.8;lucidId=syEQALBLiEX-;" vertex="1" parent="1">
          <mxGeometry x="660" y="239" width="15" height="45" as="geometry" />
        </mxCell>
        <mxCell id="EDwrjuHku3MKhbdXHICR-74" value="T" style="html=1;overflow=block;blockSpacing=1;whiteSpace=wrap;fontSize=16.7;fontColor=#3a414a;spacing=3.8;strokeOpacity=0;fillOpacity=0;rounded=1;absoluteArcSize=1;arcSize=9;fillColor=#ffffff;strokeWidth=0.8;lucidId=syEQALBLiEX-;" vertex="1" parent="1">
          <mxGeometry x="1015" y="239" width="15" height="45" as="geometry" />
        </mxCell>
        <mxCell id="EDwrjuHku3MKhbdXHICR-76" value="" style="edgeStyle=orthogonalEdgeStyle;rounded=0;orthogonalLoop=1;jettySize=auto;html=1;exitX=0.5;exitY=0;exitDx=0;exitDy=0;entryX=0.5;entryY=1;entryDx=0;entryDy=0;endArrow=none;endFill=0;" edge="1" parent="1" source="S80QuY6IthFkzWMJONJ6-11" target="EDwrjuHku3MKhbdXHICR-75">
          <mxGeometry relative="1" as="geometry">
            <mxPoint x="1090" y="335" as="sourcePoint" />
            <mxPoint x="1090" y="305" as="targetPoint" />
          </mxGeometry>
        </mxCell>
        <mxCell id="EDwrjuHku3MKhbdXHICR-75" value="O" style="html=1;overflow=block;blockSpacing=1;whiteSpace=wrap;fontSize=16.7;fontColor=#3a414a;spacing=3.8;strokeOpacity=0;fillOpacity=0;rounded=1;absoluteArcSize=1;arcSize=9;fillColor=#ffffff;strokeWidth=0.8;lucidId=syEQALBLiEX-;" vertex="1" parent="1">
          <mxGeometry x="1090" y="290" width="15" height="45" as="geometry" />
        </mxCell>
        <mxCell id="EDwrjuHku3MKhbdXHICR-77" value="T" style="html=1;overflow=block;blockSpacing=1;whiteSpace=wrap;fontSize=16.7;fontColor=#3a414a;spacing=3.8;strokeOpacity=0;fillOpacity=0;rounded=1;absoluteArcSize=1;arcSize=9;fillColor=#ffffff;strokeWidth=0.8;lucidId=syEQALBLiEX-;" vertex="1" parent="1">
          <mxGeometry x="1185" y="527" width="20" height="46" as="geometry" />
        </mxCell>
        <mxCell id="EDwrjuHku3MKhbdXHICR-79" value="O" style="html=1;overflow=block;blockSpacing=1;whiteSpace=wrap;fontSize=16.7;fontColor=#3a414a;spacing=3.8;strokeOpacity=0;fillOpacity=0;rounded=1;absoluteArcSize=1;arcSize=9;fillColor=#ffffff;strokeWidth=0.8;lucidId=syEQALBLiEX-;" vertex="1" parent="1">
          <mxGeometry x="1200" y="712" width="13" height="43" as="geometry" />
        </mxCell>
      </root>
    </mxGraphModel>
  </diagram>
</mxfile>
